<svg xmlns="http://www.w3.org/2000/svg" viewBox="0 0 340 340"><g data-name="Layer 15"><path d="M151.993 260.263a10.552 10.552 0 0 1 .832-1.7 16.74 16.74 0 0 1 23.988-5.167l4.349 3.477a11.273 11.273 0 0 0 8.271 2.4l21.864-2.408s8.955 27.858 9.485 28.008c.464.131-18.892 3.019-35 2.433a21.008 21.008 0 0 1-12.041-4.4c-6.015-4.641-15.694-12.974-21.748-22.643Z" style="fill:#9a9acb"/><path d="M260.917 168.673a8.336 8.336 0 0 1 8.332 8.106c.295 10.385 1.281 28.546 4.56 41.149l-18.433.755s-4.877-25.293-2.74-42.663a8.349 8.349 0 0 1 8.281-7.347Z" style="fill:#464965"/><path d="M225.844 157.62c.157-.023.316-.044.477-.064a9.561 9.561 0 0 1 9.468 4.758c6.269 10.986 21.449 38.126 27.471 53.65l-23.295 9.216s-11.879-33.956-21.256-54.093a9.511 9.511 0 0 1 7.135-13.467Z" style="fill:#9a9acb"/><path d="M180.936 166.816q.246-.186.5-.37a12.472 12.472 0 0 1 16.053 1.25c10.373 10.262 31.554 32.231 45.8 53.866l-19.451 17.011s-30.912-32.508-45.653-55.125a12.367 12.367 0 0 1 2.751-16.632Z" style="fill:#9a9acb"/><path d="m317.665 317.591 8.268-8.607a4.8 4.8 0 0 0 .008-6.637l-25.028-26.176-10.124 13.178Z" style="fill:#464965"/><path d="m280.112 300.655 25.079 23.138a4.8 4.8 0 0 0 6.71-.2l5.764-6-26.876-28.242Z" style="fill:#ccccef"/><path d="M161.377 125.549 125.958 91a31.051 31.051 0 0 0 9.292 5.673 19.312 19.312 0 0 0 20.87-4.473 5.141 5.141 0 0 0 .241-6.82 221.634 221.634 0 0 0-33.869-33.383 39.027 39.027 0 0 0-23.807-8.427l-4.478-.053a26.224 26.224 0 0 1-18.543-7.993l-21.95-22.7-42.653 37.789 14.723 14.745a44.845 44.845 0 0 1 12.525 24.454l3.254 19.91c8.7 27.619 33.455 49.3 49.185 60.8a19.245 19.245 0 0 0 24.823-1.844l1.369-1.344a16.985 16.985 0 0 0 21.647-2.342l2.3-2.385 2.013 1.822a11.461 11.461 0 0 0 15.353.031 10.976 10.976 0 0 0-.176-15.9l-.294-.274 4.119-4.5a13.11 13.11 0 0 0-.525-18.237Z" style="fill:#ffcaca"/><path d="M213.224 250.136s-9.645 11.7-3.157 26.656c6.313 14.555 23.675 12.451 23.675 12.451s-7.015-29.111-20.518-39.107Zm50.036 49.596s17.093 10.7 33.021-5.015c15.869-15.662 2.4-36.386 2.4-36.386Z" style="fill:#464965"/><path d="M160.19 145.834c-11.6-11.4-35.753-32.294-43.873-39.274a3.427 3.427 0 0 0-5.4-4.076c-12.843 12.13-29.587 29.4-29.755 29.574a3.437 3.437 0 0 0-.173 4.589 281.352 281.352 0 0 0 33.766 33.338 3.437 3.437 0 0 0 4.364-5.31 280.771 280.771 0 0 1-30.83-30.083c2.072-2.121 5.457-5.569 9.415-9.545 6.764 6.431 26.309 25.121 40.712 39.95a3.436 3.436 0 0 0 4.93-4.787c-14.386-14.813-33.856-33.438-40.778-40.022a906.019 906.019 0 0 1 8.9-8.728c7.7 6.616 32.266 27.841 43.9 39.275a3.437 3.437 0 0 0 4.819-4.9Z" style="fill:#ef9199"/><path d="M188.929 259.3a11.261 11.261 0 0 1-6.889-1.8c-5.6 10.443-5.256 21.66-4.46 27.75a20.766 20.766 0 0 0 7.3 1.979c-.695-3.404-2.772-16.736 4.049-27.929Z" style="fill:#464965"/><path d="M128.285 293.043a3.434 3.434 0 0 1-1.086-.177 129.527 129.527 0 0 1-88.622-122.03 3.436 3.436 0 0 1 3.412-3.461h.025a3.437 3.437 0 0 1 3.435 3.412 122.657 122.657 0 0 0 83.921 115.559 3.437 3.437 0 0 1-1.085 6.7Zm29.5 6.006c-.093 0-.187 0-.282-.011-1.488-.121-3-.27-4.492-.444a3.436 3.436 0 0 1 .794-6.826c1.414.164 2.845.306 4.254.42a3.436 3.436 0 0 1-.274 6.861Zm135.839-112.815a3.441 3.441 0 0 1-3.423-3.784 124.54 124.54 0 0 0 .634-12.549c0-56.994-40.312-107.356-95.853-119.75a3.436 3.436 0 0 1 1.5-6.707A129.616 129.616 0 0 1 297.707 169.9a131.814 131.814 0 0 1-.668 13.243 3.438 3.438 0 0 1-3.415 3.091ZM153.894 48a3.436 3.436 0 0 1-.38-6.851q1.984-.222 3.989-.386a3.436 3.436 0 0 1 .556 6.85q-1.9.155-3.778.365a3.373 3.373 0 0 1-.387.022Z" style="fill:#b3b3d0"/><path d="M225.39 197.854a35.784 35.784 0 0 0-23.026 17.646c1.672 1.943 2.9 3.756 5.719 4.7 3.331-5.228 9.722-14.52 22.3-16.242q-2.475-3.102-4.993-6.104Zm-19.316-21.443c-11.32 3.818-17.392 12.6-20.157 17.957a326.057 326.057 0 0 0 4.761 6.149c.879-2.393 6.278-15.4 20.736-18.454a483.505 483.505 0 0 0-5.34-5.652Zm37.774.313a914.42 914.42 0 0 0-3.833-6.926 30.969 30.969 0 0 0-18.5 7.534 411.782 411.782 0 0 1 2.865 6.767 23.919 23.919 0 0 1 19.468-7.375Zm11.305 21.476a499.287 499.287 0 0 0-3.738-7.328 29.207 29.207 0 0 0-21.376 7.434 973.229 973.229 0 0 1 2.71 7.1c.663-.878 7.808-9.778 22.404-7.206Z" style="fill:#464965"/><path d="M155.629 190.46q.335-.26.683-.515a11.373 11.373 0 0 1 13.632.1c7.131 5.434 19.952 15.312 32.42 25.457a20.032 20.032 0 0 0 5.719 4.7c6.447 5.345 12.535 10.585 17.378 15.106l-9.972 20.1s-23.981-12.455-60.652-47.909a11.309 11.309 0 0 1 .792-17.039Z" style="fill:#9a9acb"/><path d="M202.364 215.5c-9.383 5.778-13.23 15.262-14.729 20.776a320.782 320.782 0 0 0 6.01 4.606c.461-2.668 3.2-15.253 14.438-20.686a842.785 842.785 0 0 0-5.719-4.696Zm-21.199-16.821c-9.354 5.414-13.411 14.654-14.957 19.452q2.916 2.641 5.695 5.073a3.43 3.43 0 0 0 .224-.7c.028-.143 2.906-14.005 15.035-19.145a1896.6 1896.6 0 0 0-5.997-4.68Z" style="fill:#464965"/><path d="M213.142 244.2a99.042 99.042 0 0 1 42.982-30.224s40.878 11.838 36.945 42.99c-4.963 39.314-40.894 42.989-40.894 42.989l-17.075-5.579a12.609 12.609 0 0 1-8.344-8.924c-1.845-7.435-5.871-19.927-13.912-31.28a8.2 8.2 0 0 1 .298-9.972Z" style="fill:#fff"/><circle cx="259.352" cy="281.879" r="3.908" style="fill:#464965"/><circle cx="272.64" cy="268.464" r="3.908" style="fill:#464965"/><path d="M301.348 260.778a15.138 15.138 0 0 0-.376-14.889 131.8 131.8 0 0 0-24.672-29.921 16.246 16.246 0 0 0-15.379-3.521 91.383 91.383 0 0 0-4.792 1.53 375.541 375.541 0 0 1 27.33 36.773 18.211 18.211 0 0 1 .228 19.655c-6.259 9.969-17.309 24.333-31.508 29.545l3.707 1.21a14.991 14.991 0 0 0 13.314-1.938c16.058-11.381 26.893-28.644 32.148-38.444Z" style="fill:#b8c0db"/><circle cx="285.511" cy="256.222" r="3.908" style="fill:#464965"/><path d="M304.464 262.225a18.662 18.662 0 0 0-.54-18.094 134.833 134.833 0 0 0-25.324-30.717 19.918 19.918 0 0 0-2.715-2.043c-2.257-11.95-2.972-26.8-3.195-34.689a11.774 11.774 0 0 0-23.459-1.081 69.912 69.912 0 0 0-.315 3.24 957.24 957.24 0 0 0-10.137-18.23 12.974 12.974 0 0 0-12.879-6.465l-.535.072a12.639 12.639 0 0 0-9.4 6.568 13.128 13.128 0 0 0-.363 11.751c2.38 5.111 4.928 11.146 7.37 17.2-8.825-10.1-17.306-18.793-23.056-24.482a15.872 15.872 0 0 0-20.481-1.593c-.19.138-.378.275-.555.409a15.82 15.82 0 0 0-3.566 21.255q2.927 4.488 6.886 9.8a1567.92 1567.92 0 0 0-10.165-7.817 14.9 14.9 0 0 0-17.748-.137c-.257.19-.512.381-.756.571a14.537 14.537 0 0 0-5.586 10.711 14.873 14.873 0 0 0 4.511 11.5c25.062 24.229 44.438 37.9 53.928 43.988l-17.319 1.907a7.78 7.78 0 0 1-5.749-1.668l-4.348-3.477c-.062-.049-.126-.1-.191-.142a20.42 20.42 0 0 0-16.024-3.132 19.7 19.7 0 0 0-12.892 9.4 13.834 13.834 0 0 0-1.114 2.323 3.441 3.441 0 0 0 .341 2.929c6.148 9.816 15.666 18.219 22.568 23.54a24.289 24.289 0 0 0 14.013 5.11c1.552.057 3.122.082 4.691.082a219.641 219.641 0 0 0 26.167-1.8 27.753 27.753 0 0 0 9.922 3.378 16.049 16.049 0 0 0 7.592 5.241l20.783 6.784a18.518 18.518 0 0 0 10.838.217 31.831 31.831 0 0 0 11.136 2.049 29.548 29.548 0 0 0 4.429-.341l25.045 23.107 4.757-4.951c-.017-.016-.029-.036-.046-.052l-22.1-20.39a32.558 32.558 0 0 0 7.007-4.38l19.294 20.274c.017.018.039.03.056.048s.033.042.052.061l16.215-16.88-24.124-25.231a38.187 38.187 0 0 0-2.919-15.723Zm-48.418-85.786a4.9 4.9 0 0 1 9.769.438 264.035 264.035 0 0 0 2.61 31.713 19.574 19.574 0 0 0-4.6-.154c-2.3-5.176-5.18-11.03-8.2-16.9a3.332 3.332 0 0 0 .02-.347 92.155 92.155 0 0 1 .401-14.75Zm-34.222-6.8a6.145 6.145 0 0 1 .174-5.575 5.83 5.83 0 0 1 4.333-3.039l.414-.056a6.11 6.11 0 0 1 6.059 3.051c5.09 8.92 17.143 30.41 24.226 46.056a95.963 95.963 0 0 0-13.6 5.572 241.42 241.42 0 0 0-6.633-9.071 3.463 3.463 0 0 0-.137-.517c-3.96-10.602-9.76-25.524-14.836-36.424Zm-40.759 11.936a8.93 8.93 0 0 1 1.94-12.013c.146-.109.293-.218.438-.323a9.013 9.013 0 0 1 11.631.9c10.044 9.935 28.541 29.166 42.3 48.83a102.824 102.824 0 0 0-13.873 9.9c-4.925-4.392-10.667-9.233-16.567-14.069a3.407 3.407 0 0 0-.353-.5c-11.341-13.138-19.925-24.148-25.516-32.728Zm4.846 102.3a17.471 17.471 0 0 1-10.068-3.686c-4.985-3.843-13.943-11.4-19.9-20.15a12.894 12.894 0 0 1 8.294-5.891 13.544 13.544 0 0 1 10.525 2.013l4.25 3.4a14.611 14.611 0 0 0 10.793 3.131l15.045-1.657a29.147 29.147 0 0 0 2.061 17.13 23.781 23.781 0 0 0 2.735 4.73 185.378 185.378 0 0 1-23.735.975Zm22.23-36.971c-9.8-6.458-27.862-19.591-50.916-41.88a8 8 0 0 1-2.426-6.19 7.571 7.571 0 0 1 2.94-5.657q.3-.23.607-.458a7.986 7.986 0 0 1 9.515.063c10.111 7.705 34.515 26.53 50.509 40.728a101.985 101.985 0 0 0-7.883 8.509 11.466 11.466 0 0 0-2.346 4.881Zm5.078 28.526a22.51 22.51 0 0 1-.937-15.88 94.206 94.206 0 0 1 10.668 24.928 16.327 16.327 0 0 1-9.731-9.053Zm43.729 22.468-20.783-6.783a9.12 9.12 0 0 1-6.075-6.486c-2.1-8.459-6.308-20.953-14.443-32.437a4.739 4.739 0 0 1 .15-5.81c6.98-8.5 22.248-23.772 46.07-30.627a13.046 13.046 0 0 1 3.6-.51 12.714 12.714 0 0 1 8.533 3.278 127.869 127.869 0 0 1 24.023 29.124 11.751 11.751 0 0 1 .3 11.507c-4.915 9.168-15.494 26.2-31.109 37.265a11.6 11.6 0 0 1-10.266 1.474Zm36.919-5.622c-6.937 6.847-14.072 8.036-19.586 7.442 11.365-8.912 19.93-20.439 25.549-29.471 1.485 6.487 1.259 14.897-5.963 22.024Zm30.492 13.393-6.682 6.955-16.883-17.74a28.052 28.052 0 0 0 4.984-8.649ZM141.057 167.377a14.856 14.856 0 0 0 19.49-.366c.034-.03.068-.062.1-.093a14.426 14.426 0 0 0 1.758-18.6l2.03-2.221a16.473 16.473 0 0 0-.659-23.007l-22.183-21.636a22.774 22.774 0 0 0 16.978-6.85 8.551 8.551 0 0 0 .458-11.393 225.636 225.636 0 0 0-34.4-33.91 42.691 42.691 0 0 0-25.9-9.168l-4.478-.052a22.932 22.932 0 0 1-16.113-6.946l-21.85-22.593-5.138 4.552c.033.038.057.081.092.117l21.951 22.7a29.845 29.845 0 0 0 20.974 9.04l4.477.054a35.775 35.775 0 0 1 21.714 7.68 218.6 218.6 0 0 1 33.335 32.856 1.708 1.708 0 0 1-.023 2.245 15.828 15.828 0 0 1-17.152 3.7 27.658 27.658 0 0 1-8.214-5l-7.939-8.208a3.435 3.435 0 0 0-3.2-.969c-21.055 4.572-29.19-5.372-29.5-5.77a3.436 3.436 0 0 0-6.076 2.9 23.79 23.79 0 0 0 10.663 13.686c6.426 3.732 14.544 4.338 24.146 1.806l7.794 2.15 34.786 33.928a9.634 9.634 0 0 1 .386 13.452l-4.119 4.5a3.436 3.436 0 0 0 .195 4.834l.294.273a7.541 7.541 0 0 1 .169 10.872 8 8 0 0 1-10.7-.067l-2.012-1.822a3.438 3.438 0 0 0-4.782.163l-2.3 2.384a13.537 13.537 0 0 1-17.266 1.868 3.435 3.435 0 0 0-4.313.407l-1.369 1.343a15.748 15.748 0 0 1-20.389 1.523c-14.19-10.37-39.239-31.779-47.862-58.822l-3.21-19.66A48.011 48.011 0 0 0 28.216 62.93l-14.579-14.6L8.5 52.882c.046.051.08.109.13.159l14.723 14.745a41.17 41.17 0 0 1 11.565 22.58l3.254 19.91a3.425 3.425 0 0 0 .114.478c9.143 29.026 35.523 51.646 50.434 62.538a22.588 22.588 0 0 0 28.769-1.7 20.413 20.413 0 0 0 23.568-4.215Z" style="fill:#464965"/></g></svg>