<svg xmlns="http://www.w3.org/2000/svg" viewBox="0 0 504.079 504.079" xml:space="preserve" class="ui-logo-img" data-v-1b1b88aa=""><path style="fill:#324d5b;" d="M502.519 328.249c-11.815-91.372-61.046-191.015-63.015-195.348-.788-1.575-2.363-3.151-3.938-3.938l-7.483-3.151-2.363-8.665c0-.788-.394-1.182-.788-1.969-.394-.788-5.514-10.634-19.692-16.148-12.997-5.12-45.686-16.542-65.378-16.542-6.695 0-12.209 1.182-15.754 3.938-2.757 1.182-14.572 11.815-25.994 11.815h-94.523c-11.028 0-23.237-10.24-25.994-11.815-3.938-2.757-9.058-3.938-15.754-3.938-19.692 0-52.382 11.422-65.378 16.542-14.178 5.514-19.298 15.36-19.692 16.148-.394.394-.394 1.182-.788 1.969l-2.363 9.058-5.514 3.151a7.732 7.732 0 0 0-3.545 3.545c-1.969 4.332-51.2 103.975-63.015 195.348-4.332 34.265.394 59.471 14.572 75.618 13.785 15.36 31.902 17.723 39.385 17.723h5.908c10.24 0 24.812-7.877 72.862-59.471 4.726-5.12 8.271-7.877 10.634-10.24 7.089-7.089 21.662-9.452 32.295-9.452h150.449c10.634 0 25.6 2.363 32.295 9.452 2.363 2.363 5.908 5.12 10.634 10.24 48.049 51.594 62.622 59.471 72.862 59.471h5.908c7.089 0 25.6-1.969 39.385-17.723 13.388-16.147 18.114-41.747 13.782-75.618z"></path><path style="fill:#1d323d;" d="M439.504 132.902c-.788-1.575-2.363-3.151-3.938-3.938l-7.483-3.151-2.363-8.665c0-.788-.394-1.182-.788-1.969-.394-.788-5.514-10.634-19.692-16.148-12.997-5.12-45.686-16.542-65.378-16.542-6.695 0-12.209 1.182-15.754 3.938-2.757 1.182-14.572 11.815-25.994 11.815h-94.523c-11.028 0-23.237-10.24-25.994-11.815-3.938-2.757-9.058-3.938-15.754-3.938-19.692 0-52.382 11.422-65.378 16.542-14.178 5.514-19.298 15.36-19.692 16.148-.394.394-.394 1.182-.788 1.969l-2.363 9.058-5.514 3.151a7.732 7.732 0 0 0-3.545 3.545c-.394 1.182-4.726 9.058-10.24 22.055l36.628-18.511c51.988-24.812 70.498-10.634 72.074-9.452 1.182 1.575 8.271 11.028 25.206 27.569 16.148 16.148 23.631 18.511 26.782 18.511h69.317c3.545 0 11.028-2.757 26.388-18.511 16.542-16.542 23.631-25.6 24.812-27.569 1.969-1.575 21.268-16.148 76.012 11.422-.788-.788 23.237 11.422 39.385 19.692-6.303-14.572-10.636-24.025-11.423-25.206z"></path><path style="fill:#597583;" d="M372.156 216.397c-7.483 0-13.785 6.302-13.785 13.785s6.302 13.785 13.785 13.785 13.785-6.302 13.785-13.785-6.302-13.785-13.785-13.785zm31.508-31.508c-7.483 0-13.785 6.302-13.785 13.785s6.302 13.785 13.785 13.785 13.785-6.302 13.785-13.785-6.302-13.785-13.785-13.785zm-63.016 0c-7.483 0-13.785 6.302-13.785 13.785s6.302 13.785 13.785 13.785 13.785-6.302 13.785-13.785-6.302-13.785-13.785-13.785zm31.508-31.507c-7.483 0-13.785 6.302-13.785 13.785s6.302 13.785 13.785 13.785 13.785-6.302 13.785-13.785c-.001-7.484-6.302-13.785-13.785-13.785z"></path><path style="fill:#b8c4cb;" d="M252.033 121.874c8.665 0 15.754 7.089 15.754 15.754s-7.089 15.754-15.754 15.754-15.754-7.089-15.754-15.754 7.089-15.754 15.754-15.754z"></path><path style="fill:#4f6b79;" d="M222.888 279.412H208.71v14.572c0 3.151-2.363 5.514-5.514 5.514h-12.603c-3.151 0-5.514-2.363-5.514-5.514v-14.572h-14.178c-3.151 0-5.514-2.363-5.514-5.514v-12.603c0-3.151 2.363-5.514 5.514-5.514h14.178v-14.178c0-3.151 2.363-5.514 5.514-5.514h12.603c3.151 0 5.514 2.363 5.514 5.514v14.178h14.178c3.151 0 5.514 2.363 5.514 5.514v12.603c0 3.151-2.363 5.514-5.514 5.514z"></path><path style="fill:#2d4552;" d="M299.294 228.212c21.662 0 39.385 17.723 39.385 39.385s-17.723 39.385-39.385 39.385-39.385-17.723-39.385-39.385c.001-21.661 17.724-39.385 39.385-39.385z"></path><path style="fill:#4f6b79;" d="M299.294 240.028c15.36 0 27.569 12.209 27.569 27.569s-12.209 27.569-27.569 27.569-27.569-12.209-27.569-27.569c0-14.966 12.209-27.569 27.569-27.569z"></path><path style="fill:#2d4552;" d="M126.002 157.32c21.662 0 39.385 17.723 39.385 39.385s-17.723 39.385-39.385 39.385-39.385-17.723-39.385-39.385 17.723-39.385 39.385-39.385z"></path><path style="fill:#4f6b79;" d="M126.002 169.136c15.36 0 27.569 12.209 27.569 27.569s-12.209 27.569-27.569 27.569-27.569-12.209-27.569-27.569c0-14.966 12.209-27.569 27.569-27.569z"></path><path style="fill:#3f5966;" d="M299.294 251.843c8.665 0 15.754 7.089 15.754 15.754s-7.089 15.754-15.754 15.754-15.754-7.089-15.754-15.754 7.09-15.754 15.754-15.754zm-173.292-70.892c8.665 0 15.754 7.089 15.754 15.754s-7.089 15.754-15.754 15.754-15.754-7.089-15.754-15.754 7.089-15.754 15.754-15.754z"></path></svg>