<svg width="190" height="36" xmlns="http://www.w3.org/2000/svg"><g transform="translate(5 4)" fill="none" fill-rule="evenodd"><rect stroke="#07C160" x=".5" y=".5" width="180" height="27" rx="5"/><text font-family="PingFangSC-Regular, PingFang SC" font-size="14" fill="#07C160">
                <tspan x="32" y="19">本站已支持 </tspan>
                <tspan x="106.662" y="19" font-family="PingFangSC-Semibold, PingFang SC" font-weight="500">IPv6 </tspan>
                <tspan x="139.576" y="19">访问</tspan>
            </text><path d="m25.891 11.385.395-1.328a.69.69 0 0 0-.187-.7l-1.007-.952-.321-1.349a.691.691 0 0 0-.512-.511l-1.348-.322-.953-1.007a.69.69 0 0 0-.7-.187l-1.328.395-1.329-.395a.69.69 0 0 0-.698.187l-.953 1.007-1.349.322a.69.69 0 0 0-.511.511l-.322 1.349-1.007.953a.69.69 0 0 0-.187.699l.395 1.328-.395 1.329a.691.691 0 0 0 .187.699l1.007.953.322 1.348a.69.69 0 0 0 .511.512l1.349.322.953 1.006a.69.69 0 0 0 .698.187l1.33-.395 1.328.395a.686.686 0 0 0 .699-.187l.953-1.006 1.348-.322a.691.691 0 0 0 .512-.512l.321-1.348 1.007-.953c.19-.18.262-.45.187-.7l-.395-1.328ZM19.93 7.96a3.453 3.453 0 1 1 0 6.906 3.453 3.453 0 0 1 0-6.906Zm-5.213 9.405-1.612 3.904s-.464.867.558.806c1.023-.062 1.89-.031 1.89-.031l1.302 1.27s.496.65.868 0c.371-.65 1.89-4.617 1.89-4.617s-1.798.775-2.975-.34c-1.178-1.116-1.921-.992-1.921-.992Zm10.566 0 1.612 3.904s.464.867-.558.806c-1.023-.062-1.89-.031-1.89-.031l-1.302 1.27s-.496.65-.867 0c-.372-.65-1.89-4.617-1.89-4.617s1.797.775 2.974-.34c1.178-1.116 1.921-.992 1.921-.992Z" fill="#07C160" fill-rule="nonzero"/></g></svg>